<mxfile host="Electron" modified="2023-09-14T18:00:51.885Z" agent="Mozilla/5.0 (Macintosh; Intel Mac OS X 10_15_7) AppleWebKit/537.36 (KHTML, like Gecko) draw.io/21.6.8 Chrome/114.0.5735.289 Electron/25.5.0 Safari/537.36" etag="gSHyvbPUUID8Eqk4X7dV" version="21.6.8" type="device">
  <diagram name="PÃ¡gina-1" id="W69IMhSUqB-XBkyIDA2W">
    <mxGraphModel dx="1668" dy="859" grid="1" gridSize="10" guides="1" tooltips="1" connect="1" arrows="1" fold="1" page="1" pageScale="1" pageWidth="3300" pageHeight="4681" background="none" math="0" shadow="1">
      <root>
        <mxCell id="0" />
        <mxCell id="1" parent="0" />
        <mxCell id="8lU06dpuhTWTIma9q2Tz-6" value="Model&lt;br&gt;" style="swimlane;fontStyle=1;align=center;verticalAlign=top;childLayout=stackLayout;horizontal=1;startSize=26;horizontalStack=0;resizeParent=1;resizeParentMax=0;resizeLast=0;collapsible=1;marginBottom=0;whiteSpace=wrap;html=1;strokeWidth=3;" parent="1" vertex="1">
          <mxGeometry x="1430" y="60" width="370" height="550" as="geometry" />
        </mxCell>
        <mxCell id="8lU06dpuhTWTIma9q2Tz-7" value="&lt;font style=&quot;font-size: 14px;&quot;&gt;+ database: DataFrame&lt;br&gt;+ typeLiq: string&lt;br&gt;+ velminLiq: float&lt;br style=&quot;border-color: var(--border-color);&quot;&gt;+ velmaxLiq: float&lt;br&gt;+ velsupLiq: float&lt;br style=&quot;border-color: var(--border-color);&quot;&gt;+ viscLiq: float&lt;br&gt;+ densLiq: float&lt;br&gt;+ typegas: string&lt;br&gt;+ velmingas: float&lt;br style=&quot;border-color: var(--border-color);&quot;&gt;+ velmaxgas: float&lt;br&gt;+ velsupgas: float&lt;br&gt;+ viscgas: float&lt;span style=&quot;border-color: var(--border-color); color: rgb(51, 51, 51);&quot;&gt;&lt;br&gt;&lt;/span&gt;+ densgas: float&lt;br&gt;+ intetens: float&lt;br&gt;+ diamtub: float&lt;br&gt;+ resolution: integer&lt;br&gt;+ modeltype: string&lt;br&gt;+ modelsubtype: string&lt;br&gt;&lt;/font&gt;&lt;span data-lucid-content=&quot;{&amp;quot;t&amp;quot;:&amp;quot;+ DataBaseFlowPattern:type = Dict\n+ TypeLiq:type = String\n+ TypeGas:type = String\n+ VelMinLiq:type = Float\n+ VelMaxLiq:type = Float\n+ VelMinGas:type = Float\n+ VelMaxGas:type = Float\n+ ViscLiq:type = Float\n+ DensLiq:type = Float\n+ ViscGas:type = Float\n+ DensGas:type = Float\n+ IntTen:type = Float\n+ DiamTub:type = Float\n+ PhenomModel:type = String\n+ DrivenModel:type = String\n+ HybridModel:type = String\n+ Mesh:type = Integer\n+ Points:type = List&amp;quot;,&amp;quot;m&amp;quot;:[{&amp;quot;s&amp;quot;:0,&amp;quot;n&amp;quot;:&amp;quot;c&amp;quot;,&amp;quot;v&amp;quot;:&amp;quot;#333333ff&amp;quot;,&amp;quot;e&amp;quot;:427},{&amp;quot;s&amp;quot;:427,&amp;quot;n&amp;quot;:&amp;quot;c&amp;quot;,&amp;quot;v&amp;quot;:&amp;quot;#e81313ff&amp;quot;,&amp;quot;e&amp;quot;:445},{&amp;quot;s&amp;quot;:427,&amp;quot;n&amp;quot;:&amp;quot;fc&amp;quot;,&amp;quot;v&amp;quot;:&amp;quot;Bold&amp;quot;,&amp;quot;e&amp;quot;:445},{&amp;quot;s&amp;quot;:427,&amp;quot;n&amp;quot;:&amp;quot;b&amp;quot;,&amp;quot;v&amp;quot;:true,&amp;quot;e&amp;quot;:445},{&amp;quot;s&amp;quot;:427,&amp;quot;n&amp;quot;:&amp;quot;fid&amp;quot;,&amp;quot;v&amp;quot;:5,&amp;quot;e&amp;quot;:445}]}&quot; data-lucid-type=&quot;application/vnd.lucid.text&quot;&gt;&lt;font size=&quot;3&quot;&gt;&lt;font style=&quot;&quot;&gt;+ xprev: ndarray&lt;br&gt;+ patterns&lt;/font&gt;: ndarray&lt;/font&gt;&lt;br&gt;&lt;/span&gt;" style="text;strokeColor=none;fillColor=none;align=left;verticalAlign=top;spacingLeft=4;spacingRight=4;overflow=hidden;rotatable=0;points=[[0,0.5],[1,0.5]];portConstraint=eastwest;whiteSpace=wrap;html=1;strokeWidth=3;" parent="8lU06dpuhTWTIma9q2Tz-6" vertex="1">
          <mxGeometry y="26" width="370" height="404" as="geometry" />
        </mxCell>
        <mxCell id="8lU06dpuhTWTIma9q2Tz-8" value="" style="line;strokeWidth=3;fillColor=none;align=left;verticalAlign=middle;spacingTop=-1;spacingLeft=3;spacingRight=3;rotatable=0;labelPosition=right;points=[];portConstraint=eastwest;strokeColor=inherit;" parent="8lU06dpuhTWTIma9q2Tz-6" vertex="1">
          <mxGeometry y="430" width="370" height="8" as="geometry" />
        </mxCell>
        <mxCell id="8lU06dpuhTWTIma9q2Tz-9" value="+ admensional(): ndarray&lt;br&gt;+ h_adm():&lt;br&gt;+ plot_patterns(ndarray):&amp;nbsp;&lt;br&gt;+ plot_patterns_extrapoints(list):" style="text;strokeColor=none;fillColor=none;align=left;verticalAlign=top;spacingLeft=4;spacingRight=4;overflow=hidden;rotatable=0;points=[[0,0.5],[1,0.5]];portConstraint=eastwest;whiteSpace=wrap;html=1;strokeWidth=3;" parent="8lU06dpuhTWTIma9q2Tz-6" vertex="1">
          <mxGeometry y="438" width="370" height="112" as="geometry" />
        </mxCell>
        <mxCell id="n5A1FLaFWHqckZeXO9hP-1" value="Phenom" style="swimlane;fontStyle=1;align=center;verticalAlign=top;childLayout=stackLayout;horizontal=1;startSize=26;horizontalStack=0;resizeParent=1;resizeParentMax=0;resizeLast=0;collapsible=1;marginBottom=0;whiteSpace=wrap;html=1;strokeWidth=3;" parent="1" vertex="1">
          <mxGeometry x="1000" y="720" width="370" height="220" as="geometry" />
        </mxCell>
        <mxCell id="n5A1FLaFWHqckZeXO9hP-2" value="&lt;span data-lucid-content=&quot;{&amp;quot;t&amp;quot;:&amp;quot;+ DataBaseFlowPattern:type = Dict\n+ TypeLiq:type = String\n+ TypeGas:type = String\n+ VelMinLiq:type = Float\n+ VelMaxLiq:type = Float\n+ VelMinGas:type = Float\n+ VelMaxGas:type = Float\n+ ViscLiq:type = Float\n+ DensLiq:type = Float\n+ ViscGas:type = Float\n+ DensGas:type = Float\n+ IntTen:type = Float\n+ DiamTub:type = Float\n+ PhenomModel:type = String\n+ DrivenModel:type = String\n+ HybridModel:type = String\n+ Mesh:type = Integer\n+ Points:type = List&amp;quot;,&amp;quot;m&amp;quot;:[{&amp;quot;s&amp;quot;:0,&amp;quot;n&amp;quot;:&amp;quot;c&amp;quot;,&amp;quot;v&amp;quot;:&amp;quot;#333333ff&amp;quot;,&amp;quot;e&amp;quot;:427},{&amp;quot;s&amp;quot;:427,&amp;quot;n&amp;quot;:&amp;quot;c&amp;quot;,&amp;quot;v&amp;quot;:&amp;quot;#e81313ff&amp;quot;,&amp;quot;e&amp;quot;:445},{&amp;quot;s&amp;quot;:427,&amp;quot;n&amp;quot;:&amp;quot;fc&amp;quot;,&amp;quot;v&amp;quot;:&amp;quot;Bold&amp;quot;,&amp;quot;e&amp;quot;:445},{&amp;quot;s&amp;quot;:427,&amp;quot;n&amp;quot;:&amp;quot;b&amp;quot;,&amp;quot;v&amp;quot;:true,&amp;quot;e&amp;quot;:445},{&amp;quot;s&amp;quot;:427,&amp;quot;n&amp;quot;:&amp;quot;fid&amp;quot;,&amp;quot;v&amp;quot;:5,&amp;quot;e&amp;quot;:445}]}&quot; data-lucid-type=&quot;application/vnd.lucid.text&quot;&gt;&lt;span style=&quot;font-size: 14px;&quot;&gt;+ phenom_model: list&lt;/span&gt;&lt;br&gt;&lt;/span&gt;" style="text;strokeColor=none;fillColor=none;align=left;verticalAlign=top;spacingLeft=4;spacingRight=4;overflow=hidden;rotatable=0;points=[[0,0.5],[1,0.5]];portConstraint=eastwest;whiteSpace=wrap;html=1;strokeWidth=3;" parent="n5A1FLaFWHqckZeXO9hP-1" vertex="1">
          <mxGeometry y="26" width="370" height="124" as="geometry" />
        </mxCell>
        <mxCell id="n5A1FLaFWHqckZeXO9hP-3" value="" style="line;strokeWidth=3;fillColor=none;align=left;verticalAlign=middle;spacingTop=-1;spacingLeft=3;spacingRight=3;rotatable=0;labelPosition=right;points=[];portConstraint=eastwest;strokeColor=inherit;" parent="n5A1FLaFWHqckZeXO9hP-1" vertex="1">
          <mxGeometry y="150" width="370" height="8" as="geometry" />
        </mxCell>
        <mxCell id="n5A1FLaFWHqckZeXO9hP-4" value="&lt;font style=&quot;font-size: 14px;&quot;&gt;+ barnea1987():&lt;br&gt;+ shohn():&lt;br&gt;&lt;/font&gt;" style="text;strokeColor=none;fillColor=none;align=left;verticalAlign=top;spacingLeft=4;spacingRight=4;overflow=hidden;rotatable=0;points=[[0,0.5],[1,0.5]];portConstraint=eastwest;whiteSpace=wrap;html=1;strokeWidth=3;" parent="n5A1FLaFWHqckZeXO9hP-1" vertex="1">
          <mxGeometry y="158" width="370" height="62" as="geometry" />
        </mxCell>
        <mxCell id="n5A1FLaFWHqckZeXO9hP-5" value="DataDriven" style="swimlane;fontStyle=1;align=center;verticalAlign=top;childLayout=stackLayout;horizontal=1;startSize=26;horizontalStack=0;resizeParent=1;resizeParentMax=0;resizeLast=0;collapsible=1;marginBottom=0;whiteSpace=wrap;html=1;strokeWidth=3;" parent="1" vertex="1">
          <mxGeometry x="1441" y="720" width="370" height="220" as="geometry" />
        </mxCell>
        <mxCell id="n5A1FLaFWHqckZeXO9hP-6" value="&lt;span data-lucid-content=&quot;{&amp;quot;t&amp;quot;:&amp;quot;+ DataBaseFlowPattern:type = Dict\n+ TypeLiq:type = String\n+ TypeGas:type = String\n+ VelMinLiq:type = Float\n+ VelMaxLiq:type = Float\n+ VelMinGas:type = Float\n+ VelMaxGas:type = Float\n+ ViscLiq:type = Float\n+ DensLiq:type = Float\n+ ViscGas:type = Float\n+ DensGas:type = Float\n+ IntTen:type = Float\n+ DiamTub:type = Float\n+ PhenomModel:type = String\n+ DrivenModel:type = String\n+ HybridModel:type = String\n+ Mesh:type = Integer\n+ Points:type = List&amp;quot;,&amp;quot;m&amp;quot;:[{&amp;quot;s&amp;quot;:0,&amp;quot;n&amp;quot;:&amp;quot;c&amp;quot;,&amp;quot;v&amp;quot;:&amp;quot;#333333ff&amp;quot;,&amp;quot;e&amp;quot;:427},{&amp;quot;s&amp;quot;:427,&amp;quot;n&amp;quot;:&amp;quot;c&amp;quot;,&amp;quot;v&amp;quot;:&amp;quot;#e81313ff&amp;quot;,&amp;quot;e&amp;quot;:445},{&amp;quot;s&amp;quot;:427,&amp;quot;n&amp;quot;:&amp;quot;fc&amp;quot;,&amp;quot;v&amp;quot;:&amp;quot;Bold&amp;quot;,&amp;quot;e&amp;quot;:445},{&amp;quot;s&amp;quot;:427,&amp;quot;n&amp;quot;:&amp;quot;b&amp;quot;,&amp;quot;v&amp;quot;:true,&amp;quot;e&amp;quot;:445},{&amp;quot;s&amp;quot;:427,&amp;quot;n&amp;quot;:&amp;quot;fid&amp;quot;,&amp;quot;v&amp;quot;:5,&amp;quot;e&amp;quot;:445}]}&quot; data-lucid-type=&quot;application/vnd.lucid.text&quot;&gt;+ classify: list&lt;br&gt;&lt;/span&gt;" style="text;strokeColor=none;fillColor=none;align=left;verticalAlign=top;spacingLeft=4;spacingRight=4;overflow=hidden;rotatable=0;points=[[0,0.5],[1,0.5]];portConstraint=eastwest;whiteSpace=wrap;html=1;strokeWidth=3;" parent="n5A1FLaFWHqckZeXO9hP-5" vertex="1">
          <mxGeometry y="26" width="370" height="124" as="geometry" />
        </mxCell>
        <mxCell id="n5A1FLaFWHqckZeXO9hP-7" value="" style="line;strokeWidth=3;fillColor=none;align=left;verticalAlign=middle;spacingTop=-1;spacingLeft=3;spacingRight=3;rotatable=0;labelPosition=right;points=[];portConstraint=eastwest;strokeColor=inherit;" parent="n5A1FLaFWHqckZeXO9hP-5" vertex="1">
          <mxGeometry y="150" width="370" height="8" as="geometry" />
        </mxCell>
        <mxCell id="n5A1FLaFWHqckZeXO9hP-8" value="&lt;font style=&quot;font-size: 14px;&quot;&gt;+ datadriven_sklearn():&lt;br&gt;+ datadriven_compare_sklearn():&lt;br&gt;&lt;/font&gt;" style="text;strokeColor=none;fillColor=none;align=left;verticalAlign=top;spacingLeft=4;spacingRight=4;overflow=hidden;rotatable=0;points=[[0,0.5],[1,0.5]];portConstraint=eastwest;whiteSpace=wrap;html=1;strokeWidth=3;" parent="n5A1FLaFWHqckZeXO9hP-5" vertex="1">
          <mxGeometry y="158" width="370" height="62" as="geometry" />
        </mxCell>
        <mxCell id="n5A1FLaFWHqckZeXO9hP-9" value="Hybrid" style="swimlane;fontStyle=1;align=center;verticalAlign=top;childLayout=stackLayout;horizontal=1;startSize=26;horizontalStack=0;resizeParent=1;resizeParentMax=0;resizeLast=0;collapsible=1;marginBottom=0;whiteSpace=wrap;html=1;strokeWidth=3;" parent="1" vertex="1">
          <mxGeometry x="1210" y="1100" width="370" height="230" as="geometry" />
        </mxCell>
        <mxCell id="n5A1FLaFWHqckZeXO9hP-10" value="&lt;span data-lucid-content=&quot;{&amp;quot;t&amp;quot;:&amp;quot;+ DataBaseFlowPattern:type = Dict\n+ TypeLiq:type = String\n+ TypeGas:type = String\n+ VelMinLiq:type = Float\n+ VelMaxLiq:type = Float\n+ VelMinGas:type = Float\n+ VelMaxGas:type = Float\n+ ViscLiq:type = Float\n+ DensLiq:type = Float\n+ ViscGas:type = Float\n+ DensGas:type = Float\n+ IntTen:type = Float\n+ DiamTub:type = Float\n+ PhenomModel:type = String\n+ DrivenModel:type = String\n+ HybridModel:type = String\n+ Mesh:type = Integer\n+ Points:type = List&amp;quot;,&amp;quot;m&amp;quot;:[{&amp;quot;s&amp;quot;:0,&amp;quot;n&amp;quot;:&amp;quot;c&amp;quot;,&amp;quot;v&amp;quot;:&amp;quot;#333333ff&amp;quot;,&amp;quot;e&amp;quot;:427},{&amp;quot;s&amp;quot;:427,&amp;quot;n&amp;quot;:&amp;quot;c&amp;quot;,&amp;quot;v&amp;quot;:&amp;quot;#e81313ff&amp;quot;,&amp;quot;e&amp;quot;:445},{&amp;quot;s&amp;quot;:427,&amp;quot;n&amp;quot;:&amp;quot;fc&amp;quot;,&amp;quot;v&amp;quot;:&amp;quot;Bold&amp;quot;,&amp;quot;e&amp;quot;:445},{&amp;quot;s&amp;quot;:427,&amp;quot;n&amp;quot;:&amp;quot;b&amp;quot;,&amp;quot;v&amp;quot;:true,&amp;quot;e&amp;quot;:445},{&amp;quot;s&amp;quot;:427,&amp;quot;n&amp;quot;:&amp;quot;fid&amp;quot;,&amp;quot;v&amp;quot;:5,&amp;quot;e&amp;quot;:445}]}&quot; data-lucid-type=&quot;application/vnd.lucid.text&quot;&gt;+&amp;nbsp;&lt;br&gt;&lt;/span&gt;" style="text;strokeColor=none;fillColor=none;align=left;verticalAlign=top;spacingLeft=4;spacingRight=4;overflow=hidden;rotatable=0;points=[[0,0.5],[1,0.5]];portConstraint=eastwest;whiteSpace=wrap;html=1;strokeWidth=3;" parent="n5A1FLaFWHqckZeXO9hP-9" vertex="1">
          <mxGeometry y="26" width="370" height="124" as="geometry" />
        </mxCell>
        <mxCell id="n5A1FLaFWHqckZeXO9hP-11" value="" style="line;strokeWidth=3;fillColor=none;align=left;verticalAlign=middle;spacingTop=-1;spacingLeft=3;spacingRight=3;rotatable=0;labelPosition=right;points=[];portConstraint=eastwest;strokeColor=inherit;" parent="n5A1FLaFWHqckZeXO9hP-9" vertex="1">
          <mxGeometry y="150" width="370" height="8" as="geometry" />
        </mxCell>
        <mxCell id="n5A1FLaFWHqckZeXO9hP-12" value="+&amp;nbsp;" style="text;strokeColor=none;fillColor=none;align=left;verticalAlign=top;spacingLeft=4;spacingRight=4;overflow=hidden;rotatable=0;points=[[0,0.5],[1,0.5]];portConstraint=eastwest;whiteSpace=wrap;html=1;strokeWidth=3;" parent="n5A1FLaFWHqckZeXO9hP-9" vertex="1">
          <mxGeometry y="158" width="370" height="72" as="geometry" />
        </mxCell>
        <mxCell id="mXO4WOo0wM_Yo1mcIDiF-4" value="" style="endArrow=none;endFill=0;html=1;align=left;verticalAlign=top;rounded=0;startArrow=classic;startFill=1;strokeWidth=3;exitX=0;exitY=0.5;exitDx=0;exitDy=0;entryX=0.5;entryY=0;entryDx=0;entryDy=0;edgeStyle=orthogonalEdgeStyle;" parent="1" source="8lU06dpuhTWTIma9q2Tz-9" target="n5A1FLaFWHqckZeXO9hP-1" edge="1">
          <mxGeometry x="-1" relative="1" as="geometry">
            <mxPoint x="1570" y="430" as="sourcePoint" />
            <mxPoint x="1730" y="430" as="targetPoint" />
          </mxGeometry>
        </mxCell>
        <mxCell id="mXO4WOo0wM_Yo1mcIDiF-16" value="HoldUpPressureGradrient" style="swimlane;fontStyle=1;align=center;verticalAlign=top;childLayout=stackLayout;horizontal=1;startSize=26;horizontalStack=0;resizeParent=1;resizeParentMax=0;resizeLast=0;collapsible=1;marginBottom=0;whiteSpace=wrap;html=1;strokeWidth=3;" parent="1" vertex="1">
          <mxGeometry x="1930" y="722" width="370" height="230" as="geometry" />
        </mxCell>
        <mxCell id="mXO4WOo0wM_Yo1mcIDiF-17" value="&lt;font style=&quot;font-size: 14px;&quot;&gt;+ regressor: list&lt;br&gt;&lt;/font&gt;" style="text;strokeColor=none;fillColor=none;align=left;verticalAlign=top;spacingLeft=4;spacingRight=4;overflow=hidden;rotatable=0;points=[[0,0.5],[1,0.5]];portConstraint=eastwest;whiteSpace=wrap;html=1;strokeWidth=3;" parent="mXO4WOo0wM_Yo1mcIDiF-16" vertex="1">
          <mxGeometry y="26" width="370" height="124" as="geometry" />
        </mxCell>
        <mxCell id="mXO4WOo0wM_Yo1mcIDiF-18" value="" style="line;strokeWidth=3;fillColor=none;align=left;verticalAlign=middle;spacingTop=-1;spacingLeft=3;spacingRight=3;rotatable=0;labelPosition=right;points=[];portConstraint=eastwest;strokeColor=inherit;" parent="mXO4WOo0wM_Yo1mcIDiF-16" vertex="1">
          <mxGeometry y="150" width="370" height="8" as="geometry" />
        </mxCell>
        <mxCell id="mXO4WOo0wM_Yo1mcIDiF-19" value="&lt;font style=&quot;font-size: 14px;&quot;&gt;+ pressure_hold_up_sklearn_regressor():&lt;br&gt;+ pressure_hold_up_compare_sklearn_regressor():&lt;br&gt;&lt;br&gt;&lt;/font&gt;" style="text;strokeColor=none;fillColor=none;align=left;verticalAlign=top;spacingLeft=4;spacingRight=4;overflow=hidden;rotatable=0;points=[[0,0.5],[1,0.5]];portConstraint=eastwest;whiteSpace=wrap;html=1;strokeWidth=3;" parent="mXO4WOo0wM_Yo1mcIDiF-16" vertex="1">
          <mxGeometry y="158" width="370" height="72" as="geometry" />
        </mxCell>
        <mxCell id="9kSgPkSdNATEiacZAvZI-3" value="" style="endArrow=classic;endFill=1;html=1;align=left;verticalAlign=top;rounded=0;exitX=0.5;exitY=0;exitDx=0;exitDy=0;entryX=0.492;entryY=1;entryDx=0;entryDy=0;entryPerimeter=0;strokeWidth=3;" parent="1" source="n5A1FLaFWHqckZeXO9hP-5" target="8lU06dpuhTWTIma9q2Tz-9" edge="1">
          <mxGeometry x="-1" relative="1" as="geometry">
            <mxPoint x="1520" y="670" as="sourcePoint" />
            <mxPoint x="1690" y="670" as="targetPoint" />
          </mxGeometry>
        </mxCell>
        <mxCell id="9kSgPkSdNATEiacZAvZI-12" value="" style="endArrow=classic;endFill=1;html=1;align=left;verticalAlign=top;rounded=0;exitX=0.474;exitY=-0.026;exitDx=0;exitDy=0;exitPerimeter=0;entryX=1;entryY=0.5;entryDx=0;entryDy=0;strokeWidth=3;edgeStyle=orthogonalEdgeStyle;" parent="1" source="mXO4WOo0wM_Yo1mcIDiF-16" target="8lU06dpuhTWTIma9q2Tz-9" edge="1">
          <mxGeometry x="-1" relative="1" as="geometry">
            <mxPoint x="1970" y="500" as="sourcePoint" />
            <mxPoint x="2130" y="500" as="targetPoint" />
          </mxGeometry>
        </mxCell>
        <mxCell id="LxVra2p3i0z32SDpcp4i-1" value="PreProcess" style="swimlane;fontStyle=1;align=center;verticalAlign=top;childLayout=stackLayout;horizontal=1;startSize=26;horizontalStack=0;resizeParent=1;resizeParentMax=0;resizeLast=0;collapsible=1;marginBottom=0;whiteSpace=wrap;html=1;strokeWidth=3;" parent="1" vertex="1">
          <mxGeometry x="960" y="260" width="220" height="150" as="geometry" />
        </mxCell>
        <mxCell id="LxVra2p3i0z32SDpcp4i-2" value="+ prop" style="text;strokeColor=none;fillColor=none;align=left;verticalAlign=top;spacingLeft=4;spacingRight=4;overflow=hidden;rotatable=0;points=[[0,0.5],[1,0.5]];portConstraint=eastwest;whiteSpace=wrap;html=1;" parent="LxVra2p3i0z32SDpcp4i-1" vertex="1">
          <mxGeometry y="26" width="220" height="26" as="geometry" />
        </mxCell>
        <mxCell id="LxVra2p3i0z32SDpcp4i-3" value="" style="line;strokeWidth=3;fillColor=none;align=left;verticalAlign=middle;spacingTop=-1;spacingLeft=3;spacingRight=3;rotatable=0;labelPosition=right;points=[];portConstraint=eastwest;strokeColor=inherit;" parent="LxVra2p3i0z32SDpcp4i-1" vertex="1">
          <mxGeometry y="52" width="220" height="8" as="geometry" />
        </mxCell>
        <mxCell id="LxVra2p3i0z32SDpcp4i-4" value="+ clear_nan_observation():&lt;br&gt;+ clear_empty_observation():&amp;nbsp;&lt;br&gt;+ replace_empty_observation():&amp;nbsp;" style="text;strokeColor=none;fillColor=none;align=left;verticalAlign=top;spacingLeft=4;spacingRight=4;overflow=hidden;rotatable=0;points=[[0,0.5],[1,0.5]];portConstraint=eastwest;whiteSpace=wrap;html=1;" parent="LxVra2p3i0z32SDpcp4i-1" vertex="1">
          <mxGeometry y="60" width="220" height="90" as="geometry" />
        </mxCell>
        <mxCell id="LxVra2p3i0z32SDpcp4i-5" value="" style="endArrow=diamondThin;endFill=1;endSize=24;html=1;rounded=0;exitX=1;exitY=0.5;exitDx=0;exitDy=0;strokeWidth=3;" parent="1" source="LxVra2p3i0z32SDpcp4i-2" target="8lU06dpuhTWTIma9q2Tz-7" edge="1">
          <mxGeometry width="160" relative="1" as="geometry">
            <mxPoint x="1190" y="310" as="sourcePoint" />
            <mxPoint x="1350" y="310" as="targetPoint" />
          </mxGeometry>
        </mxCell>
        <mxCell id="LxVra2p3i0z32SDpcp4i-6" value="" style="endArrow=diamondThin;endFill=1;endSize=24;html=1;rounded=0;entryX=0.484;entryY=1.008;entryDx=0;entryDy=0;entryPerimeter=0;exitX=0.449;exitY=-0.007;exitDx=0;exitDy=0;exitPerimeter=0;strokeWidth=3;" parent="1" source="n5A1FLaFWHqckZeXO9hP-9" target="n5A1FLaFWHqckZeXO9hP-4" edge="1">
          <mxGeometry width="160" relative="1" as="geometry">
            <mxPoint x="1400" y="1090" as="sourcePoint" />
            <mxPoint x="1180" y="1050" as="targetPoint" />
            <Array as="points">
              <mxPoint x="1280" y="1020" />
            </Array>
          </mxGeometry>
        </mxCell>
        <mxCell id="LxVra2p3i0z32SDpcp4i-8" value="" style="endArrow=diamondThin;endFill=1;endSize=24;html=1;rounded=0;entryX=0.535;entryY=1.056;entryDx=0;entryDy=0;entryPerimeter=0;exitX=0.446;exitY=0.007;exitDx=0;exitDy=0;exitPerimeter=0;strokeWidth=3;" parent="1" source="n5A1FLaFWHqckZeXO9hP-9" target="n5A1FLaFWHqckZeXO9hP-8" edge="1">
          <mxGeometry width="160" relative="1" as="geometry">
            <mxPoint x="1240" y="920" as="sourcePoint" />
            <mxPoint x="1400" y="920" as="targetPoint" />
          </mxGeometry>
        </mxCell>
      </root>
    </mxGraphModel>
  </diagram>
</mxfile>
